<svg width="40" height="22" viewBox="0 0 40 22" fill="none" xmlns="http://www.w3.org/2000/svg">
<rect width="40" height="22" fill="#45C295"/>
<path d="M7.65059 16H9.42659V12.16H12.7866V16H14.5506V7.12H12.7866V10.612H9.42659V7.12H7.65059V16ZM20.2606 16.168C22.6126 16.168 24.2326 14.404 24.2326 11.524C24.2326 8.644 22.6126 6.952 20.2606 6.952C17.9086 6.952 16.2886 8.632 16.2886 11.524C16.2886 14.404 17.9086 16.168 20.2606 16.168ZM20.2606 14.632C18.9406 14.632 18.1006 13.42 18.1006 11.524C18.1006 9.616 18.9406 8.476 20.2606 8.476C21.5806 8.476 22.4206 9.616 22.4206 11.524C22.4206 13.42 21.5806 14.632 20.2606 14.632ZM27.356 16H29.132V8.596H31.652V7.12H24.86V8.596H27.356V16Z" fill="white"/>
</svg>
