<svg width="29" height="28" viewBox="0 0 29 28" fill="none" xmlns="http://www.w3.org/2000/svg">
<path opacity="0.9" fill-rule="evenodd" clip-rule="evenodd" d="M14.543 2C7.36264 2 1.54297 6.44802 1.54297 11.9364C1.54297 15.3497 3.79414 18.3577 7.22181 20.1469L5.77736 25.3593C5.751 25.4622 5.75702 25.5705 5.79462 25.67C5.83222 25.7694 5.89964 25.8553 5.98792 25.9161C6.07619 25.977 6.18116 26.01 6.28892 26.0107C6.39668 26.0115 6.50213 25.9799 6.59129 25.9204L12.9136 21.7959C13.4466 21.8464 13.989 21.8763 14.5408 21.8763C21.7204 21.8763 27.5408 17.4269 27.5408 11.9399C27.5408 6.453 21.7204 2.00356 14.5408 2.00356" fill="#4A2A29"/>
</svg>
