<svg width="42" height="22" viewBox="0 0 42 22" fill="none" xmlns="http://www.w3.org/2000/svg">
<rect width="42" height="22" fill="#45C295"/>
<path d="M7.74044 16H9.42044V12.436C9.42044 11.416 9.28844 10.3 9.20444 9.34H9.26444L10.1644 11.248L12.7324 16H14.5324V7.12H12.8524V10.66C12.8524 11.668 12.9844 12.844 13.0804 13.768H13.0204L12.1324 11.848L9.55244 7.12H7.74044V16ZM16.7287 16H22.3087V14.512H18.5047V12.136H21.6247V10.648H18.5047V8.596H22.1767V7.12H16.7287V16ZM24.9515 16H27.1235L28.0955 11.608C28.2395 10.912 28.3595 10.228 28.4795 9.556H28.5275C28.6355 10.228 28.7675 10.912 28.9115 11.608L29.9075 16H32.1155L33.7595 7.12H32.0675L31.3715 11.452C31.2395 12.376 31.1075 13.324 30.9755 14.284H30.9155C30.7235 13.324 30.5435 12.364 30.3515 11.452L29.3195 7.12H27.8075L26.7755 11.452C26.5835 12.376 26.3915 13.336 26.2115 14.284H26.1635C26.0315 13.336 25.8875 12.388 25.7555 11.452L25.0475 7.12H23.2355L24.9515 16Z" fill="white"/>
</svg>
